<svg xmlns="http://www.w3.org/2000/svg" width="82" height="74" fill="none" viewBox="0 0 82 74"><path fill="#fff" d="M6.1 72.1c-1.8-1.133-3.2-2.733-4.2-4.8-1-2.133-1.467-4.267-1.4-6.4-.067-4.133.267-8.3 1-12.5.8-4.267 1.833-8.4 3.1-12.4.867-2.4 1.8-4.867 2.8-7.4 1.067-2.6 2.133-5.033 3.2-7.3 1.067-2.267 2-4.067 2.8-5.4 2.067-3.4 4.233-6.2 6.5-8.4 2.333-2.267 4.067-3.733 5.2-4.4.933-.533 2.533-1.067 4.8-1.6 2.333-.533 4.733-.5 7.2.1a31.172 31.172 0 0 1 4.8 1.7c1.533.667 2.533 1.233 3 1.7l1.4 2.1c.467.533.7 1.2.7 2 .067.533-.133 1.2-.6 2-.4.733-.933 1.267-1.6 1.6-.6.333-1.2.167-1.8-.5-.867-1.333-1.767-2.233-2.7-2.7a61.344 61.344 0 0 0-3-1.6c-.733-.467-1.733-.7-3-.7a13.167 13.167 0 0 0-3.9.4c-1.333.333-2.5.9-3.5 1.7-.667.6-1.533 1.5-2.6 2.7a47.874 47.874 0 0 0-3.2 3.8c-1.067 1.4-1.933 2.767-2.6 4.1-1.8 3.133-3.433 6.3-4.9 9.5-1.4 3.133-2.6 6.567-3.6 10.3-.267.933-.633 2.3-1.1 4.1l-1.2 5.4c-.4 1.8-.667 3.267-.8 4.4-.467 3.267-.633 6.133-.5 8.6.2 2.467 1.067 4.167 2.6 5.1 1.533.933 4.067.8 7.6-.4 1.533-.2 3.167-.867 4.9-2 1.8-1.133 3.533-2.533 5.2-4.2 1.733-1.733 3.2-3.567 4.4-5.5a76.544 76.544 0 0 0 3-6.3c.933-2.067 1.433-3.767 1.5-5.1.067-1.333-.567-1.967-1.9-1.9-2.467-.267-4.467-.333-6-.2-1.533.067-2.9-.167-4.1-.7-.467-.733-.667-1.467-.6-2.2.067-.733.467-1.467 1.2-2.2.733-.267 1.967-.467 3.7-.6 1.733-.133 3.6-.067 5.6.2 2 .2 3.767.667 5.3 1.4 1.133.533 1.933 1.333 2.4 2.4.467 1 .7 2.167.7 3.5 0 1.333-.133 2.7-.4 4.1-.333 1.467-1.067 3.233-2.2 5.3-1.067 2-2.367 4.133-3.9 6.4-1 1.4-2.4 2.933-4.2 4.6a48.282 48.282 0 0 1-5.4 4.5c-1.8 1.333-3.333 2.233-4.6 2.7-2.667 1.2-5.4 1.967-8.2 2.3-2.8.4-5.1-.033-6.9-1.3Zm34.198-3.964a.725.725 0 0 0-.24-.288c-.096-.08-.144-.152-.144-.216a.789.789 0 0 0-.023-.192.298.298 0 0 0-.096-.216c-.08-.096-.073-.312.023-.648.096-.352.257-.776.48-1.272a21.17 21.17 0 0 1 .792-1.608c.128-.128.256-.296.384-.504.129-.208.225-.344.289-.408a.23.23 0 0 1 .072-.168c.047-.064.103-.096.167-.096v-.144c0-.08.072-.216.216-.408.16-.192.352-.4.576-.624.225-.24.457-.464.697-.672.24-.224.44-.384.6-.48a2.45 2.45 0 0 1 1.032-.408c.367-.048.68.032.936.24l.24.24.383.384c.16.128.32.264.48.408l.889.792-.433 1.2c-.208.64-.264 1.2-.168 1.68.112.48.272.896.48 1.248.08.176.24.344.48.504.257.16.497.256.72.288a.779.779 0 0 1 .36.144c.112.08.168.208.168.384 0 .16-.032.288-.096.384-.063.096-.175.16-.335.192-.528.064-1.024-.064-1.488-.384-.448-.32-.864-.848-1.248-1.584a3.887 3.887 0 0 1-.264-.528 5.236 5.236 0 0 1-.168-.528l-.36.456c-.176.208-.313.36-.408.456-1.136 1.152-2.12 1.928-2.952 2.328-.816.384-1.496.4-2.04.048Zm.864-1.344c0 .112.169.112.505 0 .352-.128.727-.352 1.127-.672a23.951 23.951 0 0 0 1.633-1.536c.56-.56 1.008-1.08 1.343-1.56l.528-.864c-.16-.368-.336-.616-.528-.744-.176-.144-.328-.216-.456-.216-.208 0-.52.192-.935.576-.4.384-.832.896-1.296 1.536a18.91 18.91 0 0 0-1.32 2.112c-.16.32-.304.632-.432.936l-.169.432ZM51.328 69c-.304.08-.552.016-.744-.192-.176-.208-.28-.528-.312-.96-.032-.432.016-.944.144-1.536a4.56 4.56 0 0 0 .192-.552 2 2 0 0 0 .072-.456c.032-.16.096-.392.192-.696a34.097 34.097 0 0 1 .624-1.872c.112-.272.184-.44.216-.504.064 0 .12-.056.168-.168a.847.847 0 0 0 .072-.336c0-.128.024-.272.072-.432a1.03 1.03 0 0 1 .192-.336.84.84 0 0 1 .048-.264.728.728 0 0 0 .072-.264c0-.064.016-.128.048-.192a.32.32 0 0 0 .072-.192c.112-.208.256-.536.432-.984.192-.464.392-.976.6-1.536a42.953 42.953 0 0 0 1.08-3.024c.128-.384.192-.616.192-.696 0-.128.032-.224.096-.288.064-.064.16-.096.288-.096a.356.356 0 0 1 .168-.096c.08-.016.152-.024.216-.024l.096.096.288.288c.128.112.2.24.216.384.032.144.048.312.048.504 0 .208-.024.392-.072.552-.048.16-.144.392-.288.696l-.672 1.416c-.128.32-.264.624-.408.912-.144.272-.216.44-.216.504s-.032.16-.096.288c-.048.128-.104.288-.168.48-.064.128-.152.32-.264.576-.112.24-.232.504-.36.792-.112.272-.208.512-.288.72-.08.192-.12.304-.12.336a.789.789 0 0 1-.024.192c0 .064-.032.128-.096.192-.064 0-.104.048-.12.144v.12c0 .16-.128.584-.384 1.272-.256.88-.496 1.688-.72 2.424-.208.736-.312 1.328-.312 1.776a7.7 7.7 0 0 1-.024.768c-.016.112-.088.2-.216.264Zm4.535-.744c-.24-.032-.448-.2-.624-.504a2.732 2.732 0 0 1-.288-.864c.016-.128.032-.312.048-.552.032-.24.064-.488.096-.744.064-.304.152-.672.264-1.104l.336-1.344c.128-.448.24-.832.336-1.152.096-.32.16-.512.192-.576.08-.128.208-.16.384-.096.176.064.32.16.432.288.096.128.152.28.168.456.032.176.008.432-.072.768a17.41 17.41 0 0 1-.384 1.488c-.176.64-.312 1.16-.408 1.56-.08.384-.112.792-.096 1.224-.064.544-.112.88-.144 1.008-.032.112-.112.16-.24.144Zm2.76-9.576a.32.32 0 0 1-.192.072 1.583 1.583 0 0 1-.264-.144c-.112-.016-.256-.088-.432-.216a5.498 5.498 0 0 1-.432-.432c-.112-.16-.168-.256-.168-.288-.016-.16-.008-.36.024-.6.048-.256.136-.48.264-.672a.668.668 0 0 1 .552-.336c.064 0 .12.008.168.024.048.016.192.072.432.168.128.24.256.512.384.816.128.288.184.576.168.864-.016.272-.184.52-.504.744Zm7.956 10.032c-.16 0-.328-.088-.504-.264a2.855 2.855 0 0 1-.432-.648 2.022 2.022 0 0 1-.168-.768c0-.24.056-.688.168-1.344.128-.656.28-1.32.456-1.992.128-.416.168-.656.12-.72-.048-.064-.264.024-.648.264a4.25 4.25 0 0 0-.6.36c-.176.112-.328.24-.456.384-.08.064-.2.168-.36.312-.16.144-.328.28-.504.408-.208.16-.472.384-.792.672l-.96.864a38.43 38.43 0 0 0-.696.672.528.528 0 0 1-.36.264.84.84 0 0 1-.264-.048 1.146 1.146 0 0 1-.504-.312.801.801 0 0 1-.216-.552c0-.16.064-.432.192-.816.128-.4.296-.88.504-1.44.224-.56.48-1.152.768-1.776a1.2 1.2 0 0 0 .12-.288c.032-.128.056-.264.072-.408.032-.144.048-.28.048-.408 0-.08.008-.16.024-.24.032-.096.064-.184.096-.264a.808.808 0 0 1 .12-.192c.064-.128.176-.16.336-.096.16.048.296.16.408.336.24.224.36.504.36.84.016.336-.064.752-.24 1.248-.064.112-.12.224-.168.336a4.804 4.804 0 0 1-.096.264c-.032.064-.056.12-.072.168l-.024.048c.064 0 .208-.072.432-.216.224-.144.488-.304.792-.48.24-.176.448-.336.624-.48.192-.16.352-.28.48-.36.128-.096.208-.144.24-.144a.566.566 0 0 0 .24-.072.914.914 0 0 0 .24-.168c.064-.064.112-.096.144-.096l.072-.024h.096a.425.425 0 0 0 .192-.12c.128-.096.296-.12.504-.072.208.032.4.112.576.24.176.128.264.272.264.432 0 .064.016.12.048.168l.072.048c.128 0 .208.2.24.6.048.4.008.784-.12 1.152 0 .24-.048.528-.144.864-.08.336-.152.656-.216.96-.128.4-.216.752-.264 1.056-.048.304-.056.56-.024.768.032.208.088.376.168.504.064.112.064.24 0 .384-.064.128-.192.192-.384.192Zm3.821-.888a.79.79 0 0 1-.24-.048l-.12-.072a.566.566 0 0 0-.072-.24.79.79 0 0 1-.048-.24c-.112-.064-.176-.128-.192-.192-.016-.08.008-.208.072-.384a8.33 8.33 0 0 0 .384-.768c.16-.368.328-.76.504-1.176.176-.432.344-.856.504-1.272l.408-1.056c.112-.304.176-.488.192-.552 0-.064.024-.144.072-.24a.914.914 0 0 1 .168-.24c.128-.112.264-.12.408-.024.144.08.264.224.36.432.112.192.168.408.168.648 0 .112-.08.4-.24.864-.16.448-.376.984-.648 1.608a28.046 28.046 0 0 1-.864 1.896c-.24.464-.392.76-.456.888-.064.112-.184.168-.36.168Zm3.528-9.096c-.192 0-.4-.072-.624-.216a2.702 2.702 0 0 1-.552-.576 1.39 1.39 0 0 1-.216-.72c0-.08.048-.192.144-.336l.288-.432c.096-.144.144-.232.144-.264.128 0 .224.008.288.024.08 0 .176.032.288.096.176.4.392.728.648.984.272.256.408.472.408.648 0 .352-.032.576-.096.672-.064.08-.304.12-.72.12Zm4.716 9.432a2.11 2.11 0 0 1-1.175.504 2.506 2.506 0 0 1-1.273-.192 2.564 2.564 0 0 1-1.031-.864 2.712 2.712 0 0 1-.529-1.2c-.08-.464-.088-1.064-.023-1.8.047-.624.248-1.248.6-1.872a7.516 7.516 0 0 1 1.272-1.704c.512-.496 1.016-.84 1.512-1.032.24-.16.44-.232.6-.216.175 0 .44.016.791.048.368.048.64.12.817.216.192.096.344.224.456.384.24.24.4.48.48.72.08.224.12.448.12.672-.065.352-.305.784-.72 1.296-.4.496-.928.904-1.585 1.224-.352.112-.736.16-1.151.144-.416-.016-.76-.12-1.032-.312-.305-.128-.505-.104-.6.072-.096.16-.184.56-.264 1.2-.064.608-.017 1.056.144 1.344.16.272.375.432.647.48.32.064.569.112.745.144.191.016.424-.056.695-.216.257-.16.416-.248.48-.264a.558.558 0 0 0 .144-.096l.313-.312c.112-.112.2-.192.264-.24a.298.298 0 0 1 .215-.096c.08 0 .152.04.216.12a.752.752 0 0 0 .192.144c.16 0 .193.096.097.288-.08.192-.249.424-.505.696-.256.256-.56.496-.912.72Zm-.023-5.088c.175-.08.36-.192.551-.336.192-.16.352-.328.48-.504.145-.192.217-.352.217-.48 0-.224-.105-.408-.313-.552-.208-.16-.52-.184-.936-.072-.175.048-.376.168-.6.36-.224.176-.44.376-.648.6a9.792 9.792 0 0 0-.48.6c-.112.176-.151.28-.12.312.049.08.184.144.409.192.223.032.471.04.743.024.288-.016.52-.064.697-.144Z"/></svg>