<svg xmlns="http://www.w3.org/2000/svg" width="48" height="74" fill="none" viewBox="0 0 48 74"><path fill="#fff" d="M6.1 72.1c-1.8-1.133-3.2-2.733-4.2-4.8-1-2.133-1.467-4.267-1.4-6.4-.067-4.133.267-8.3 1-12.5.8-4.267 1.833-8.4 3.1-12.4.867-2.4 1.8-4.867 2.8-7.4 1.067-2.6 2.133-5.033 3.2-7.3 1.067-2.267 2-4.067 2.8-5.4 2.067-3.4 4.233-6.2 6.5-8.4 2.333-2.267 4.067-3.733 5.2-4.4.933-.533 2.533-1.067 4.8-1.6 2.333-.533 4.733-.5 7.2.1a31.172 31.172 0 0 1 4.8 1.7c1.533.667 2.533 1.233 3 1.7l1.4 2.1c.467.533.7 1.2.7 2 .067.533-.133 1.2-.6 2-.4.733-.933 1.267-1.6 1.6-.6.333-1.2.167-1.8-.5-.867-1.333-1.767-2.233-2.7-2.7a61.344 61.344 0 0 0-3-1.6c-.733-.467-1.733-.7-3-.7a13.167 13.167 0 0 0-3.9.4c-1.333.333-2.5.9-3.5 1.7-.667.6-1.533 1.5-2.6 2.7a47.874 47.874 0 0 0-3.2 3.8c-1.067 1.4-1.933 2.767-2.6 4.1-1.8 3.133-3.433 6.3-4.9 9.5-1.4 3.133-2.6 6.567-3.6 10.3-.267.933-.633 2.3-1.1 4.1l-1.2 5.4c-.4 1.8-.667 3.267-.8 4.4-.467 3.267-.633 6.133-.5 8.6.2 2.467 1.067 4.167 2.6 5.1 1.533.933 4.067.8 7.6-.4 1.533-.2 3.167-.867 4.9-2 1.8-1.133 3.533-2.533 5.2-4.2 1.733-1.733 3.2-3.567 4.4-5.5a76.544 76.544 0 0 0 3-6.3c.933-2.067 1.433-3.767 1.5-5.1.067-1.333-.567-1.967-1.9-1.9-2.467-.267-4.467-.333-6-.2-1.533.067-2.9-.167-4.1-.7-.467-.733-.667-1.467-.6-2.2.067-.733.467-1.467 1.2-2.2.733-.267 1.967-.467 3.7-.6 1.733-.133 3.6-.067 5.6.2 2 .2 3.767.667 5.3 1.4 1.133.533 1.933 1.333 2.4 2.4.467 1 .7 2.167.7 3.5 0 1.333-.133 2.7-.4 4.1-.333 1.467-1.067 3.233-2.2 5.3-1.067 2-2.367 4.133-3.9 6.4-1 1.4-2.4 2.933-4.2 4.6a48.282 48.282 0 0 1-5.4 4.5c-1.8 1.333-3.333 2.233-4.6 2.7-2.667 1.2-5.4 1.967-8.2 2.3-2.8.4-5.1-.033-6.9-1.3Z"/></svg>