<svg xmlns="http://www.w3.org/2000/svg" xml:space="preserve" width="800" height="800" viewBox="0 0 69.415 69.415"><path fill="#FFF" d="M68.741 24.646 56.166 9.204a3.003 3.003 0 0 0-2.326-1.106H15.576a3 3 0 0 0-2.326 1.106L.674 24.646a3.003 3.003 0 0 0 .465 4.247l10.61 8.395a3 3 0 0 0 4.224-.504l1.568-2.005v23.537a3 3 0 0 0 3 3h28.332a3 3 0 0 0 3-3V34.78l1.568 2.005a2.997 2.997 0 0 0 4.224.504l10.61-8.395a2.997 2.997 0 0 0 1.121-2.026 2.995 2.995 0 0 0-.655-2.222zM39.996 14.098c-.858 2.078-2.904 3.545-5.289 3.545s-4.431-1.467-5.289-3.545h10.578zm16.313 16.614-5.072-6.484a2.998 2.998 0 0 0-5.362 1.849v29.24H23.542v-29.24a3.001 3.001 0 0 0-5.363-1.849l-5.072 6.484-5.859-4.636 9.754-11.978h6.195c1.024 5.426 5.792 9.545 11.511 9.545 5.719 0 10.487-4.12 11.511-9.545h6.195l9.754 11.978-5.859 4.636z"/></svg>